<?xml version="1.0" standalone="no"?>
<!DOCTYPE svg PUBLIC "-//W3C//DTD SVG 20010904//EN"
 "http://www.w3.org/TR/2001/REC-SVG-20010904/DTD/svg10.dtd">
<svg version="1.0" xmlns="http://www.w3.org/2000/svg"
 width="500.000000pt" height="500.000000pt" viewBox="0 0 500.000000 500.000000"
 preserveAspectRatio="xMidYMid meet">

<g transform="translate(0.000000,500.000000) scale(0.100000,-0.100000)"
fill="#000000" stroke="none">
<path d="M2458 3318 c-29 -10 -35 -22 -18 -33 6 -4 26 -30 45 -58 33 -49 34
-52 19 -75 -9 -14 -14 -36 -11 -51 6 -31 33 -109 46 -132 5 -9 7 -34 4 -56 -4
-28 -1 -42 11 -52 13 -11 16 -36 16 -143 l0 -129 58 3 57 3 3 123 c2 92 7 130
18 148 11 16 14 35 10 58 -4 20 -2 37 4 41 5 3 10 14 10 23 0 9 10 41 22 70
22 52 22 55 5 84 -17 30 -17 31 7 73 14 23 32 47 40 55 23 18 20 39 -6 49 -28
11 -55 -11 -96 -76 -25 -40 -30 -43 -72 -43 -42 0 -47 3 -72 43 -43 68 -68 86
-100 75z m37 -17 c8 -14 -13 -24 -33 -16 -14 5 -14 7 -2 15 19 12 27 12 35 1z
m303 -9 c2 -7 -6 -12 -17 -12 -21 0 -27 11 -14 24 9 9 26 2 31 -12z m-278 -32
c0 -5 -7 -10 -15 -10 -8 0 -15 5 -15 10 0 6 7 10 15 10 8 0 15 -4 15 -10z
m250 0 c0 -5 -7 -10 -15 -10 -8 0 -15 5 -15 10 0 6 7 10 15 10 8 0 15 -4 15
-10z m-230 -30 c0 -5 -7 -10 -15 -10 -8 0 -15 5 -15 10 0 6 7 10 15 10 8 0 15
-4 15 -10z m210 0 c0 -5 -6 -10 -14 -10 -8 0 -18 5 -21 10 -3 6 3 10 14 10 12
0 21 -4 21 -10z m-186 -29 c3 -5 -1 -12 -10 -15 -20 -8 -29 -1 -19 13 8 13 22
14 29 2z m161 -2 c10 -14 1 -21 -19 -13 -9 3 -13 10 -10 15 7 12 21 11 29 -2z
m4 -43 c25 -22 27 -53 7 -98 -8 -18 -18 -46 -22 -63 -6 -27 -7 -28 -14 -10 -5
11 -9 33 -9 48 -1 15 -8 30 -16 33 -10 4 -15 20 -15 45 0 37 -2 39 -30 39 -28
0 -30 -2 -30 -39 0 -25 -5 -41 -15 -45 -8 -3 -15 -16 -15 -28 0 -34 -11 -68
-21 -68 -5 0 -9 15 -9 33 0 18 -7 42 -15 53 -20 26 -19 78 3 96 27 24 43 28
114 25 48 -2 72 -8 87 -21z m-81 -69 c3 -42 1 -47 -17 -47 -18 0 -21 6 -21 43
0 24 3 47 7 51 16 15 28 -3 31 -47z m-48 -52 c0 -22 57 -20 63 3 3 12 6 8 11
-13 4 -16 11 -44 16 -61 6 -17 10 -45 10 -62 0 -61 -100 -81 -136 -27 -14 21
-14 28 0 70 9 25 16 59 16 75 0 17 5 30 10 30 6 0 10 -7 10 -15z m20 -220 c0
-8 -8 -16 -17 -16 -17 -1 -17 -2 0 -6 9 -2 17 -7 17 -10 0 -3 -8 -12 -17 -19
-17 -13 -17 -13 0 -14 20 0 23 -16 5 -24 -10 -5 -10 -7 0 -12 18 -8 15 -24 -5
-24 -17 -1 -17 -1 0 -14 22 -17 22 -26 0 -26 -15 0 -14 -2 3 -14 14 -11 16
-17 7 -26 -25 -26 -33 2 -33 111 0 102 1 109 20 109 11 0 20 -7 20 -15z m52
-20 c5 -43 -2 -57 -22 -44 -13 7 -13 10 -1 18 9 6 10 11 2 15 -16 10 -14 46 3
46 8 0 15 -14 18 -35z m3 -75 c3 -5 -3 -10 -14 -10 -12 0 -21 5 -21 10 0 6 6
10 14 10 8 0 18 -4 21 -10z m-5 -35 c0 -8 -7 -15 -15 -15 -26 0 -18 20 13 29
1 1 2 -6 2 -14z m0 -40 c0 -8 -7 -15 -15 -15 -16 0 -20 12 -8 23 11 12 23 8
23 -8z m5 -35 c-3 -5 -13 -10 -21 -10 -8 0 -14 5 -14 10 0 6 9 10 21 10 11 0
17 -4 14 -10z"/>
<path d="M2580 2921 c-8 -17 -7 -24 10 -41 36 -36 95 -16 88 31 -2 20 -9 24
-45 27 -34 2 -44 -1 -53 -17z m78 -3 c8 -8 9 -15 1 -25 -16 -18 -58 -16 -66 3
-11 28 41 46 65 22z"/>
<path d="M1830 2793 c0 -87 4 -112 18 -129 43 -54 123 -60 174 -15 l33 29 3
111 4 111 -31 0 -31 0 0 -98 c0 -116 -9 -135 -60 -130 -48 4 -60 33 -60 141 0
86 0 87 -25 87 l-25 0 0 -107z"/>
<path d="M2320 2875 c0 -24 2 -25 66 -25 l65 0 -70 -102 c-39 -56 -71 -108
-71 -115 0 -10 25 -13 105 -13 105 0 105 0 105 25 0 23 -3 24 -64 27 l-65 3
69 95 c38 52 69 103 70 113 0 15 -11 17 -105 17 l-105 0 0 -25z"/>
<path d="M2972 2813 c3 -77 5 -88 21 -85 9 2 17 -2 17 -8 0 -5 -3 -9 -7 -9
-24 4 -33 -4 -33 -25 0 -14 4 -27 9 -30 5 -3 8 2 7 11 0 9 4 17 9 19 6 2 11
-7 11 -21 2 -18 -3 -25 -17 -25 -10 0 -19 -4 -19 -10 0 -5 14 -10 30 -10 l30
0 0 140 0 140 -30 0 -31 0 3 -87z m35 52 c0 -8 -4 -15 -8 -15 -11 0 -20 16
-12 24 11 11 20 7 20 -9z m3 -40 c0 -8 -6 -15 -13 -15 -8 0 -14 7 -14 15 0 8
6 15 14 15 7 0 13 -7 13 -15z m-4 -53 c1 -17 -4 -29 -11 -29 -8 0 -12 10 -10
26 5 33 4 31 13 31 4 0 8 -13 8 -28z"/>
<path d="M3107 2873 c-4 -3 -7 -15 -7 -25 0 -10 -9 -23 -20 -30 -23 -15 -27
-38 -5 -38 12 0 15 -13 15 -61 0 -78 11 -99 53 -99 18 0 37 4 44 8 16 10 3 29
-22 33 -17 4 -20 13 -23 62 -3 55 -2 57 23 57 18 0 25 5 25 20 0 15 -7 20 -25
20 -21 0 -25 5 -25 30 0 28 -17 40 -33 23z"/>
<path d="M2110 2720 l0 -100 25 0 c24 0 25 2 25 75 0 71 1 75 24 81 39 10 46
-2 46 -82 0 -72 1 -74 25 -74 25 0 25 1 25 80 0 67 -3 83 -20 100 -23 23 -51
25 -83 9 -16 -9 -22 -9 -25 0 -2 6 -12 11 -23 11 -17 0 -19 -8 -19 -100z"/>
<path d="M2740 2690 l0 -130 25 0 c22 0 25 4 25 34 0 34 0 34 40 29 33 -5 45
-1 64 16 44 42 41 147 -4 171 -25 14 -63 13 -78 -2 -9 -9 -15 -9 -24 0 -7 7
-20 12 -30 12 -16 0 -18 -11 -18 -130z m118 78 c16 -16 16 -80 0 -96 -17 -17
-55 -15 -62 4 -10 26 -7 79 6 92 7 7 19 12 28 12 9 0 21 -5 28 -12z"/>
</g>
</svg>
