<?xml version="1.0" encoding="UTF-8"?>
<!DOCTYPE svg PUBLIC "-//W3C//DTD SVG 1.1//EN" "http://www.w3.org/Graphics/SVG/1.1/DTD/svg11.dtd">
<svg xmlns="http://www.w3.org/2000/svg" version="1.1" width="752px" height="752px" style="shape-rendering:geometricPrecision; text-rendering:geometricPrecision; image-rendering:optimizeQuality; fill-rule:evenodd; clip-rule:evenodd" xmlns:xlink="http://www.w3.org/1999/xlink">
<g><path style="opacity:0.808" fill="#000000" d="M 294.5,150.5 C 300.113,149.079 302.28,151.079 301,156.5C 299.566,158.136 297.733,159.136 295.5,159.5C 290.879,170.624 285.879,170.957 280.5,160.5C 283.299,156.451 286.965,154.617 291.5,155C 292.883,153.729 293.883,152.229 294.5,150.5 Z"/></g>
<g><path style="opacity:0.812" fill="#000000" d="M 450.5,161.5 C 452.527,161.338 454.527,161.505 456.5,162C 457.643,165.537 459.809,166.704 463,165.5C 465.333,167.167 467.667,168.833 470,170.5C 465.775,182.202 460.942,182.202 455.5,170.5C 449.665,169.914 447.999,166.914 450.5,161.5 Z"/></g>
<g><path style="opacity:0.809" fill="#000000" d="M 307.5,168.5 C 314.004,168.138 315.671,170.638 312.5,176C 310.564,176.813 308.564,177.313 306.5,177.5C 306.657,178.873 306.49,180.207 306,181.5C 303.586,183.291 301.086,184.957 298.5,186.5C 296.252,183.672 294.252,180.672 292.5,177.5C 294.359,175.808 296.359,174.308 298.5,173C 302.748,174.209 305.748,172.709 307.5,168.5 Z"/></g>
<g><path style="opacity:0.796" fill="#000000" d="M 438.5,179.5 C 440.199,179.34 441.866,179.506 443.5,180C 444.68,181.896 446.18,183.396 448,184.5C 452.016,183.904 455.516,185.237 458.5,188.5C 456.748,191.672 454.748,194.672 452.5,197.5C 448.146,196.008 445.146,193.175 443.5,189C 436.94,188.013 435.273,184.846 438.5,179.5 Z"/></g>
<g><path style="opacity:0.813" fill="#000000" d="M 318.5,187.5 C 324.113,186.079 326.28,188.079 325,193.5C 323.115,195.02 320.949,196.02 318.5,196.5C 316.794,200.535 313.794,203.202 309.5,204.5C 307.252,201.672 305.252,198.672 303.5,195.5C 306.167,193.833 308.833,192.167 311.5,190.5C 314.857,191.99 317.191,190.99 318.5,187.5 Z"/></g>
<g><path style="opacity:0.804" fill="#000000" d="M 426.5,198.5 C 428.527,198.338 430.527,198.505 432.5,199C 434.086,202.133 436.42,202.966 439.5,201.5C 442.341,203.086 445.007,204.92 447.5,207C 445.611,209.959 443.611,212.792 441.5,215.5C 439.167,214.333 436.833,213.167 434.5,212C 433.732,207.604 431.065,205.604 426.5,206C 425.221,203.502 425.221,201.002 426.5,198.5 Z"/></g>
<g><path style="opacity:0.809" fill="#000000" d="M 329.5,206.5 C 334.501,205.671 336.668,207.671 336,212.5C 333.958,214.604 331.458,215.771 328.5,216C 327.833,217.333 327.167,218.667 326.5,220C 323.804,220.765 321.304,221.932 319,223.5C 317.045,220.281 315.712,216.947 315,213.5C 318.258,210.105 322.092,208.938 326.5,210C 327.71,208.961 328.71,207.794 329.5,206.5 Z"/></g>
<g><path style="opacity:0.8" fill="#000000" d="M 416.5,217.5 C 418.199,217.34 419.866,217.506 421.5,218C 423.121,221.15 425.454,221.984 428.5,220.5C 431.079,221.706 433.579,223.039 436,224.5C 435.369,228.106 433.869,231.439 431.5,234.5C 427.191,233.375 424.191,230.875 422.5,227C 415.484,226.544 413.484,223.378 416.5,217.5 Z"/></g>
<g><path style="opacity:0.809" fill="#000000" d="M 338.5,226.5 C 344.674,225.173 346.841,227.506 345,233.5C 342.931,234.264 340.764,234.764 338.5,235C 337.141,236.204 336.141,237.704 335.5,239.5C 332.826,240.69 330.16,241.524 327.5,242C 325.855,238.902 324.688,235.735 324,232.5C 326.543,230.895 329.209,229.562 332,228.5C 334.822,230.945 336.989,230.279 338.5,226.5 Z"/></g>
<g><path style="opacity:0.796" fill="#000000" d="M 406.5,237.5 C 408.527,237.338 410.527,237.505 412.5,238C 414.26,241.505 416.427,242.005 419,239.5C 421.398,240.856 423.898,242.023 426.5,243C 426.957,243.414 427.291,243.914 427.5,244.5C 426.057,247.728 424.39,250.728 422.5,253.5C 420.249,252.305 417.915,251.305 415.5,250.5C 414.784,248.518 413.617,246.851 412,245.5C 405.69,246.393 403.857,243.727 406.5,237.5 Z"/></g>
<g><path style="opacity:0.801" fill="#000000" d="M 347.5,246.5 C 353.845,246.542 355.512,249.209 352.5,254.5C 350.224,255.213 347.891,255.713 345.5,256C 344.663,257.011 344.33,258.178 344.5,259.5C 341.575,260.639 338.575,261.139 335.5,261C 334.074,258.227 332.74,255.393 331.5,252.5C 334.373,250.897 337.373,249.564 340.5,248.5C 343.579,251.149 345.912,250.482 347.5,246.5 Z"/></g>
<g><path style="opacity:0.796" fill="#000000" d="M 399.5,257.5 C 402.691,257.762 405.358,259.095 407.5,261.5C 408.5,260.833 409.5,260.167 410.5,259.5C 413.627,260.564 416.627,261.897 419.5,263.5C 418.089,266.91 416.589,270.243 415,273.5C 412.31,272.071 409.477,271.071 406.5,270.5C 406.67,269.178 406.337,268.011 405.5,267C 402.549,266.904 399.882,266.071 397.5,264.5C 396.139,261.584 396.805,259.251 399.5,257.5 Z"/></g>
<g><path style="opacity:0.813" fill="#000000" d="M 354.5,267.5 C 360.209,266.867 362.209,269.2 360.5,274.5C 358.608,276.146 356.608,276.48 354.5,275.5C 352.644,276.276 351.311,277.609 350.5,279.5C 347.943,280.407 345.443,281.407 343,282.5C 340.578,279.096 339.745,275.429 340.5,271.5C 343.057,270.593 345.557,269.593 348,268.5C 350.611,271.243 352.778,270.91 354.5,267.5 Z"/></g>
<g><path style="opacity:0.812" fill="#000000" d="M 391.5,278.5 C 393.199,278.34 394.866,278.506 396.5,279C 398.704,281.716 401.371,282.216 404.5,280.5C 407.576,280.729 409.909,282.063 411.5,284.5C 410.816,287.725 409.649,290.725 408,293.5C 405.929,292.475 403.762,291.642 401.5,291C 400.088,289.214 398.421,287.714 396.5,286.5C 389.402,287.457 387.735,284.79 391.5,278.5 Z"/></g>
<g><path style="opacity:0.817" fill="#000000" d="M 361.5,288.5 C 366.494,288.329 368.328,290.662 367,295.5C 364.402,297.613 361.569,298.113 358.5,297C 357.663,298.011 357.33,299.178 357.5,300.5C 354.167,301.167 350.833,301.833 347.5,302.5C 346.833,298.833 346.167,295.167 345.5,291.5C 348.238,291.149 350.904,290.482 353.5,289.5C 356.53,292.158 359.197,291.825 361.5,288.5 Z"/></g>
<g><path style="opacity:0.812" fill="#000000" d="M 385.5,299.5 C 388.69,299.513 391.524,300.513 394,302.5C 395.285,302.05 396.452,301.383 397.5,300.5C 400.021,301.785 402.687,302.452 405.5,302.5C 404.992,306.197 404.326,309.864 403.5,313.5C 400.167,312.833 396.833,312.167 393.5,311.5C 393.026,308.013 391.192,307.013 388,308.5C 383.072,306.71 382.239,303.71 385.5,299.5 Z"/></g>
<g><path style="opacity:0.835" fill="#000000" d="M 357.5,310.5 C 359.277,310.786 360.944,311.453 362.5,312.5C 365.501,310.471 368.668,310.138 372,311.5C 373.016,317.486 370.683,319.486 365,317.5C 363.294,318.308 362.461,319.641 362.5,321.5C 359.216,321.723 356.049,322.39 353,323.5C 352.04,320.367 351.207,317.2 350.5,314C 352.548,312.168 354.881,311.001 357.5,310.5 Z"/></g>
<g><path style="opacity:0.824" fill="#000000" d="M 379.5,321.5 C 382.765,321.208 385.765,321.875 388.5,323.5C 389.741,322.963 390.908,322.296 392,321.5C 394.791,322.406 397.624,323.073 400.5,323.5C 400.13,327.352 399.13,331.019 397.5,334.5C 394.601,333.358 391.601,332.692 388.5,332.5C 388.5,331.5 388.5,330.5 388.5,329.5C 385.421,329.74 382.421,329.407 379.5,328.5C 378.286,326.141 378.286,323.808 379.5,321.5 Z"/></g>
<g><path style="opacity:0.648" fill="#000000" d="M 361.5,331.5 C 363.277,331.786 364.944,332.453 366.5,333.5C 369.028,332.058 371.695,331.558 374.5,332C 376.648,334.075 376.982,336.408 375.5,339C 378.503,340.166 381.17,341.833 383.5,344C 385.135,344.54 386.468,344.04 387.5,342.5C 390.167,343.167 392.833,343.833 395.5,344.5C 395.782,347.057 395.949,349.723 396,352.5C 398.628,354.126 400.961,356.126 403,358.5C 403.167,360.333 403.333,362.167 403.5,364C 401.719,376.134 400.219,388.3 399,400.5C 398.071,405.059 395.237,407.392 390.5,407.5C 393.613,420.901 396.28,434.401 398.5,448C 397.004,460.667 390.004,468.5 377.5,471.5C 375.833,470.833 374.167,470.167 372.5,469.5C 369.041,472.131 365.041,473.131 360.5,472.5C 360.664,469.813 360.497,467.146 360,464.5C 355.473,459.945 352.973,454.445 352.5,448C 354.72,434.401 357.387,420.901 360.5,407.5C 355.763,407.392 352.929,405.059 352,400.5C 350.781,388.3 349.281,376.134 347.5,364C 346.791,360.065 348.124,357.065 351.5,355C 358.167,350.333 364.833,345.667 371.5,341C 370.737,340.056 369.737,339.556 368.5,339.5C 364.873,342.818 360.54,344.152 355.5,343.5C 355.368,340.111 355.201,336.777 355,333.5C 357.277,332.883 359.444,332.216 361.5,331.5 Z M 373.5,342.5 C 374.873,342.343 376.207,342.51 377.5,343C 384.5,348 391.5,353 398.5,358C 399.872,359.242 400.872,360.742 401.5,362.5C 398.968,375.389 397.135,388.389 396,401.5C 394.54,404.21 392.54,404.876 390,403.5C 388.794,397.139 387.461,390.806 386,384.5C 384.71,382.208 383.043,380.208 381,378.5C 380.667,374.5 380.333,370.5 380,366.5C 377,363.833 374,363.833 371,366.5C 370.667,370.5 370.333,374.5 370,378.5C 367.957,380.208 366.29,382.208 365,384.5C 363.54,390.798 362.207,397.131 361,403.5C 358.46,404.876 356.46,404.21 355,401.5C 353.865,388.389 352.032,375.389 349.5,362.5C 350.128,360.742 351.128,359.242 352.5,358C 359.924,353.3 366.924,348.134 373.5,342.5 Z M 373.5,367.5 C 374.833,367.5 376.167,367.5 377.5,367.5C 377.5,375.167 377.5,382.833 377.5,390.5C 376.167,390.5 374.833,390.5 373.5,390.5C 373.5,382.833 373.5,375.167 373.5,367.5 Z M 366.5,387.5 C 368.794,396.932 373.961,398.932 382,393.5C 382.973,391.608 383.64,389.608 384,387.5C 387.795,406.142 391.462,424.809 395,443.5C 395.74,457.27 389.24,465.27 375.5,467.5C 361.76,465.27 355.26,457.27 356,443.5C 359.696,424.856 363.196,406.189 366.5,387.5 Z M 367.5,435.5 C 370.542,438.621 374.208,439.288 378.5,437.5C 380.91,439.92 383.91,441.087 387.5,441C 391.826,448.807 389.493,452.307 380.5,451.5C 380.113,452.72 379.28,453.387 378,453.5C 375.547,452.507 373.047,452.34 370.5,453C 369.167,455 369.167,457 370.5,459C 366.841,457.85 364.174,455.35 362.5,451.5C 366.308,451.063 369.641,449.729 372.5,447.5C 378.77,451.247 381.603,449.58 381,442.5C 378.282,440.231 375.449,440.231 372.5,442.5C 370.374,440.285 367.708,439.118 364.5,439C 365.71,437.961 366.71,436.794 367.5,435.5 Z"/></g>
<g><path style="opacity:0.784" fill="#000000" d="M 370.5,430.5 C 387.597,429.763 394.431,437.763 391,454.5C 384.462,463.879 375.962,466.046 365.5,461C 356.646,452.341 356.312,443.341 364.5,434C 366.432,432.541 368.432,431.375 370.5,430.5 Z M 367.5,435.5 C 366.71,436.794 365.71,437.961 364.5,439C 367.708,439.118 370.374,440.285 372.5,442.5C 375.449,440.231 378.282,440.231 381,442.5C 381.603,449.58 378.77,451.247 372.5,447.5C 369.641,449.729 366.308,451.063 362.5,451.5C 364.174,455.35 366.841,457.85 370.5,459C 369.167,457 369.167,455 370.5,453C 373.047,452.34 375.547,452.507 378,453.5C 379.28,453.387 380.113,452.72 380.5,451.5C 389.493,452.307 391.826,448.807 387.5,441C 383.91,441.087 380.91,439.92 378.5,437.5C 374.208,439.288 370.542,438.621 367.5,435.5 Z"/></g>
<g><path style="opacity:0.841" fill="#000000" d="M 380.5,472.5 C 383.833,472.5 387.167,472.5 390.5,472.5C 390.5,476.167 390.5,479.833 390.5,483.5C 385.959,484.131 381.959,483.131 378.5,480.5C 372.5,483.758 369.667,482.092 370,475.5C 372.716,473.032 375.549,473.032 378.5,475.5C 379.919,474.995 380.585,473.995 380.5,472.5 Z"/></g>
<g><path style="opacity:0.845" fill="#000000" d="M 360.5,483.5 C 364.683,483.137 368.683,483.804 372.5,485.5C 379.961,482.499 382.628,484.666 380.5,492C 377.798,492.607 375.132,492.44 372.5,491.5C 371.09,491.868 370.09,492.701 369.5,494C 366.518,494.498 363.518,494.665 360.5,494.5C 360.5,490.833 360.5,487.167 360.5,483.5 Z"/></g>
<g><path style="opacity:0.846" fill="#000000" d="M 380.5,494.5 C 383.833,494.5 387.167,494.5 390.5,494.5C 390.5,498.167 390.5,501.833 390.5,505.5C 385.82,506.196 381.653,505.196 378,502.5C 371.099,505.336 368.599,503.336 370.5,496.5C 373.141,495.29 375.807,495.29 378.5,496.5C 379.713,496.253 380.38,495.586 380.5,494.5 Z"/></g>
<g><path style="opacity:0.84" fill="#000000" d="M 360.5,504.5 C 365.041,503.869 369.041,504.869 372.5,507.5C 375.103,506.438 377.77,506.272 380.5,507C 382.1,513.885 379.433,516.052 372.5,513.5C 368.683,515.196 364.683,515.863 360.5,515.5C 360.5,511.833 360.5,508.167 360.5,504.5 Z"/></g>
<g><path style="opacity:0.845" fill="#000000" d="M 381.5,515.5 C 384.5,515.5 387.5,515.5 390.5,515.5C 390.5,519.167 390.5,522.833 390.5,526.5C 383.714,525.722 377.048,525.056 370.5,524.5C 368.599,517.664 371.099,515.664 378,518.5C 379.642,518.022 380.809,517.022 381.5,515.5 Z"/></g>
<g><path style="opacity:0.841" fill="#000000" d="M 360.5,526.5 C 365.041,525.869 369.041,526.869 372.5,529.5C 378.77,525.753 381.603,527.42 381,534.5C 378.21,537.08 375.376,537.08 372.5,534.5C 369.041,537.131 365.041,538.131 360.5,537.5C 360.5,533.833 360.5,530.167 360.5,526.5 Z"/></g>
<g><path style="opacity:0.841" fill="#000000" d="M 380.5,537.5 C 383.833,537.5 387.167,537.5 390.5,537.5C 390.5,541.167 390.5,544.833 390.5,548.5C 385.959,549.131 381.959,548.131 378.5,545.5C 372.5,548.758 369.667,547.092 370,540.5C 372.716,538.032 375.549,538.032 378.5,540.5C 379.919,539.995 380.585,538.995 380.5,537.5 Z"/></g>
<g><path style="opacity:0.845" fill="#000000" d="M 360.5,548.5 C 364.683,548.137 368.683,548.804 372.5,550.5C 379.961,547.499 382.628,549.666 380.5,557C 377.798,557.607 375.132,557.44 372.5,556.5C 371.09,556.868 370.09,557.701 369.5,559C 366.518,559.498 363.518,559.665 360.5,559.5C 360.5,555.833 360.5,552.167 360.5,548.5 Z"/></g>
<g><path style="opacity:0.849" fill="#000000" d="M 380.5,559.5 C 383.833,559.5 387.167,559.5 390.5,559.5C 390.5,563.167 390.5,566.833 390.5,570.5C 385.82,571.196 381.653,570.196 378,567.5C 371.099,570.336 368.599,568.336 370.5,561.5C 373.141,560.29 375.807,560.29 378.5,561.5C 379.713,561.253 380.38,560.586 380.5,559.5 Z"/></g>
<g><path style="opacity:0.848" fill="#000000" d="M 360.5,569.5 C 365.18,568.804 369.347,569.804 373,572.5C 380.908,569.736 383.075,571.903 379.5,579C 377.134,579.562 374.801,579.396 372.5,578.5C 368.683,580.196 364.683,580.863 360.5,580.5C 360.5,576.833 360.5,573.167 360.5,569.5 Z"/></g>
<g><path style="opacity:0.986" fill="#000000" d="M 360.5,584.5 C 370.5,584.5 380.5,584.5 390.5,584.5C 390.5,589.833 390.5,595.167 390.5,600.5C 380.5,600.5 370.5,600.5 360.5,600.5C 360.5,595.167 360.5,589.833 360.5,584.5 Z"/></g>
</svg>
